# xmcd
#
# Track frame offsets: 
#        150
#        12003
#        60674
#        92046
#        128666
#        160899
#        178106
#        208076
#        239822
#
# Disc length: 3320 seconds
#
# Revision: 0
# Processed by: cddbd v1.5.2PL0 Copyright (c) Steve Scherf et al.
# Submitted via: ExactAudioCopy v0.99pb5
#
DISCID=770cf609
DTITLE=Jana Koubkova Quartet - Jazzfest'08 live Policka
DYEAR=2008
DGENRE=Jazz
TTITLE0=bluesova dvanactka
TTITLE1=children song 3
TTITLE2=solitude
TTITLE3=blue rondo a la turk
TTITLE4=koupel
TTITLE5=dobry pocit
TTITLE6=invocation
TTITLE7=sangria
TTITLE8=bluesova dvanactka
EXTD=
EXTT0=
EXTT1=
EXTT2=
EXTT3=
EXTT4=
EXTT5=
EXTT6=
EXTT7=
EXTT8=
PLAYORDER=
